<?xml version="1.0" encoding="iso-8859-1"?>
<!-- Generator: Adobe Illustrator 19.0.0, SVG Export Plug-In . SVG Version: 6.00 Build 0)  -->
<svg version="1.1" id="Capa_1" xmlns="http://www.w3.org/2000/svg" xmlns:xlink="http://www.w3.org/1999/xlink" x="0px" y="0px"
	 viewBox="0 0 512 512" style="enable-background:new 0 0 512 512;" xml:space="preserve">
<g>
	<polygon style="fill:#BDDCF3;" points="494.345,292.573 494.345,438.855 421.005,438.855 421.005,475.427 347.674,475.427 
		347.674,512 311.005,512 311.005,475.427 274.335,475.427 274.335,512 237.665,512 237.665,475.427 200.995,475.427 200.995,512 
		164.326,512 164.326,475.427 90.995,475.427 90.995,438.855 17.655,438.855 17.655,292.573 54.325,292.573 54.325,402.282 
		90.995,402.282 90.995,365.718 127.665,365.718 127.665,219.427 164.326,219.427 164.326,329.145 200.995,329.145 200.995,109.718 
		239.404,109.718 239.404,0 276.074,0 276.074,109.718 311.005,109.718 311.005,329.145 347.674,329.145 347.674,219.427 
		384.335,219.427 384.335,365.718 421.005,365.718 421.005,402.282 457.675,402.282 457.675,292.573 	"/>
	<g>
		
			<rect x="237.665" y="292.546" style="fill:none;stroke:#000000;stroke-width:2;stroke-linecap:round;stroke-linejoin:round;" width="36.67" height="73.145"/>
		
			<rect x="200.995" y="365.727" style="fill:none;stroke:#000000;stroke-width:2;stroke-linecap:round;stroke-linejoin:round;" width="36.67" height="36.573"/>
		
			<rect x="274.361" y="365.727" style="fill:none;stroke:#000000;stroke-width:2;stroke-linecap:round;stroke-linejoin:round;" width="36.67" height="36.573"/>
	</g>
	<g>
		<polygon style="fill:#BDDCF3;" points="494.345,292.573 494.345,438.855 421.005,438.855 421.005,475.427 347.674,475.427 
			347.674,512 311.005,512 311.005,475.427 274.335,475.427 274.335,512 237.665,512 237.665,475.427 200.995,475.427 200.995,512 
			164.326,512 164.326,475.427 90.995,475.427 90.995,438.855 17.655,438.855 17.655,292.573 54.325,292.573 54.325,402.282 
			90.995,402.282 90.995,365.718 127.665,365.718 127.665,219.427 164.326,219.427 164.326,329.145 200.995,329.145 
			200.995,109.718 239.404,109.718 239.404,0 276.074,0 276.074,109.718 311.005,109.718 311.005,329.145 347.674,329.145 
			347.674,219.427 384.335,219.427 384.335,365.718 421.005,365.718 421.005,402.282 457.675,402.282 457.675,292.573 		"/>
		<g>
			<rect x="237.665" y="292.546" style="fill:#ED634C;" width="36.67" height="73.145"/>
			<rect x="200.995" y="365.727" style="fill:#ED634C;" width="36.67" height="36.573"/>
			<rect x="274.361" y="365.727" style="fill:#ED634C;" width="36.67" height="36.573"/>
			<rect x="127.665" y="219.427" style="fill:#ED634C;" width="36.67" height="36.573"/>
			<rect x="17.655" y="292.546" style="fill:#ED634C;" width="36.67" height="36.573"/>
			<rect x="347.63" y="219.427" style="fill:#ED634C;" width="36.67" height="36.573"/>
			<rect x="457.675" y="292.546" style="fill:#ED634C;" width="36.67" height="36.573"/>
			<rect x="164.326" y="475.427" style="fill:#ED634C;" width="36.67" height="36.573"/>
			<rect x="200.995" y="438.855" style="fill:#ED634C;" width="36.67" height="36.573"/>
			<rect x="274.361" y="438.855" style="fill:#ED634C;" width="36.67" height="36.573"/>
			<rect x="310.996" y="475.427" style="fill:#ED634C;" width="36.67" height="36.573"/>
		</g>
	</g>
</g>
<g>
</g>
<g>
</g>
<g>
</g>
<g>
</g>
<g>
</g>
<g>
</g>
<g>
</g>
<g>
</g>
<g>
</g>
<g>
</g>
<g>
</g>
<g>
</g>
<g>
</g>
<g>
</g>
<g>
</g>
</svg>
